<?xml version="1.0" encoding="utf-8"?>
<!-- Generator: Adobe Illustrator 24.3.0, SVG Export Plug-In . SVG Version: 6.00 Build 0)  -->
<svg version="1.1" id="Layer_1" xmlns="http://www.w3.org/2000/svg" xmlns:xlink="http://www.w3.org/1999/xlink" x="0px" y="0px"
	 viewBox="0 0 60 60" style="enable-background:new 0 0 60 60;" xml:space="preserve">
<style type="text/css">
	.st0{fill-rule:evenodd;clip-rule:evenodd;fill:#EFF4FE;}
	.st1{fill:none;}
	.st2{fill:#28457B;}
</style>
<desc>Created with Sketch.</desc>
<g id="Page-1">
	<g id="zarincard-copy-3" transform="translate(-1230.000000, -906.000000)">
		<g id="Group-27" transform="translate(1230.000000, 906.000000)">
			<path id="Rectangle-7" class="st0" d="M21.8,0h16.4c7.6,0,10.3,0.8,13.1,2.3s4.9,3.7,6.4,6.4c1.5,2.8,2.3,5.5,2.3,13.1v16.4
				c0,7.6-0.8,10.3-2.3,13.1c-1.5,2.8-3.7,4.9-6.4,6.4c-2.8,1.5-5.5,2.3-13.1,2.3H21.8c-7.6,0-10.3-0.8-13.1-2.3
				c-2.8-1.5-4.9-3.7-6.4-6.4S0,45.8,0,38.2V21.8c0-7.6,0.8-10.3,2.3-13.1s3.7-4.9,6.4-6.4S14.2,0,21.8,0z"/>
			<g id="Done_x2C_-Check" transform="translate(10.000000, 10.000000)">
				<polygon id="Path" class="st1" points="0,0 40,0 40,40 0,40 				"/>
				<g id="Group" transform="translate(5.000000, 5.000000)">
					<path class="st2" d="M15,31.8C5.8,31.8-1.8,24.2-1.8,15C-1.8,5.8,5.8-1.8,15-1.8c9.2,0,16.8,7.5,16.8,16.8
						C31.8,24.2,24.2,31.8,15,31.8z M15,1.8C7.7,1.8,1.8,7.7,1.8,15c0,7.3,5.9,13.2,13.2,13.2c7.3,0,13.2-5.9,13.2-13.2
						C28.2,7.7,22.3,1.8,15,1.8z"/>
					<path class="st2" d="M13.3,21.8c-0.4,0-0.9-0.2-1.2-0.5l-5-5c-0.7-0.7-0.7-1.8,0-2.5c0.7-0.7,1.8-0.7,2.5,0l3.8,3.8l7.1-7.1
						c0.7-0.7,1.8-0.7,2.5,0c0.7,0.7,0.7,1.8,0,2.5l-8.3,8.3C14.2,21.6,13.8,21.8,13.3,21.8z"/>
				</g>
			</g>
		</g>
	</g>
</g>
</svg>
